<svg width="16" height="16" viewBox="0 0 16 16" fill="none" xmlns="http://www.w3.org/2000/svg">
<path fill-rule="evenodd" clip-rule="evenodd" d="M14 8.26544C14 4.80513 11.3137 2 8 2C4.68629 2 2 4.80513 2 8.26544C2 10.6859 3.31433 12.7857 5.23836 13.8292C5.25618 13.7335 5.27639 13.6326 5.2975 13.5272C5.4666 12.6829 5.69362 11.5494 5.2156 10.4856C5.22379 10.451 5.22963 10.4189 5.23514 10.3886C5.24879 10.3136 5.26046 10.2494 5.30102 10.1852V10.1552L5.30102 10.1552C5.32949 10.0951 5.35797 10.035 5.41491 9.97496C5.41491 9.97496 6.13673 8.54277 6.83854 8.85427C7.54035 9.16577 6.83854 13.6996 6.83854 13.6996C6.83854 13.8798 6.98091 14 7.12327 14C7.29411 14 7.408 13.8498 7.408 13.6996V12.0175V10.3354C7.408 8.77346 8.12211 6.28598 9.03094 6.19023C9.93978 6.09448 9.03094 13.6996 9.03094 13.6996C9.03094 13.8798 9.17331 14 9.31567 14C9.48651 14 9.6004 13.8498 9.6004 13.6996L10.1075 8.85427C10.1075 8.52001 10.0712 8.13168 10.0329 7.72145C9.89222 6.21474 9.72391 4.41246 11.2233 3.90737C12.8799 3.34935 11.6594 11.371 11.3094 13.4924C12.9308 12.3708 14 10.4485 14 8.26544Z" fill="#393B91"/>
</svg>
