<svg width="400" height="100" viewBox="0 0 400 100" fill="none" xmlns="http://www.w3.org/2000/svg">
<path d="M83.375 38.75H88.1875L83.6406 60H78.5781L74.5156 45.5625L70.3906 60H65.3594L60.7656 38.75H65.6406L68.2188 54.1406L72.5156 38.75H76.4844L80.75 54.1719L83.375 38.75ZM91.125 38.125H95.8281V45.7344C96.5156 45.2031 97.25 44.7917 98.0312 44.5C98.8125 44.2083 99.6562 44.0625 100.562 44.0625C101.406 44.0625 102.167 44.1562 102.844 44.3438C103.531 44.5312 104.115 44.8542 104.594 45.3125C105.083 45.7708 105.458 46.3906 105.719 47.1719C105.979 47.9427 106.109 48.9167 106.109 50.0938V60H101.453V50.0938C101.453 49.1354 101.281 48.4583 100.938 48.0625C100.594 47.6667 100.042 47.4688 99.2812 47.4688C98.6146 47.4688 97.9948 47.5833 97.4219 47.8125C96.8594 48.0312 96.3281 48.3229 95.8281 48.6875V60H91.125V38.125ZM119.297 50.5625V50.2812C119.297 49.7708 119.229 49.349 119.094 49.0156C118.969 48.6823 118.781 48.4167 118.531 48.2188C118.281 48.0104 117.964 47.8646 117.578 47.7812C117.203 47.6979 116.766 47.6562 116.266 47.6562C115.859 47.6562 115.438 47.6875 115 47.75C114.573 47.8021 114.156 47.875 113.75 47.9688C113.344 48.0625 112.958 48.1719 112.594 48.2969C112.229 48.4115 111.917 48.5312 111.656 48.6562L110.859 45.4531C111.234 45.2552 111.656 45.0729 112.125 44.9062C112.604 44.7396 113.099 44.5938 113.609 44.4688C114.13 44.3438 114.656 44.2448 115.188 44.1719C115.729 44.099 116.255 44.0625 116.766 44.0625C117.828 44.0625 118.797 44.1562 119.672 44.3438C120.557 44.5312 121.312 44.8594 121.938 45.3281C122.573 45.7969 123.068 46.4323 123.422 47.2344C123.776 48.0365 123.953 49.0521 123.953 50.2812V60H119.766L119.469 58.3906C119.26 58.5677 118.995 58.7656 118.672 58.9844C118.349 59.1927 117.979 59.3906 117.562 59.5781C117.156 59.7656 116.703 59.9219 116.203 60.0469C115.714 60.1823 115.188 60.25 114.625 60.25C113.781 60.25 113.036 60.1354 112.391 59.9062C111.745 59.6667 111.203 59.3438 110.766 58.9375C110.328 58.5312 109.995 58.0573 109.766 57.5156C109.547 56.9635 109.438 56.375 109.438 55.75C109.438 55.0312 109.615 54.3594 109.969 53.7344C110.333 53.099 110.828 52.5469 111.453 52.0781C112.089 51.6094 112.839 51.2396 113.703 50.9688C114.568 50.6979 115.505 50.5625 116.516 50.5625H119.297ZM116.031 57.0625C116.427 57.0625 116.797 57.026 117.141 56.9531C117.495 56.8698 117.812 56.776 118.094 56.6719C118.385 56.5677 118.63 56.4635 118.828 56.3594C119.036 56.2552 119.193 56.1719 119.297 56.1094V53.2188H116.875C116.323 53.2292 115.87 53.3177 115.516 53.4844C115.161 53.651 114.88 53.849 114.672 54.0781C114.474 54.3073 114.339 54.5417 114.266 54.7812C114.193 55.0208 114.156 55.2188 114.156 55.375C114.156 55.9167 114.333 56.3333 114.688 56.625C115.052 56.9167 115.5 57.0625 116.031 57.0625ZM126.75 44.375H129.016V40.3125L133.688 40V44.375H138.094V47.2969H133.688V54.3594C133.688 55.1927 133.844 55.776 134.156 56.1094C134.469 56.4427 135 56.6094 135.75 56.6094C136.208 56.6094 136.635 56.5781 137.031 56.5156C137.438 56.4531 137.786 56.3906 138.078 56.3281L138.453 59.5781C138.224 59.6615 137.964 59.7396 137.672 59.8125C137.38 59.875 137.073 59.9323 136.75 59.9844C136.427 60.026 136.099 60.0625 135.766 60.0938C135.432 60.125 135.109 60.1406 134.797 60.1406C133.891 60.1406 133.078 60.0573 132.359 59.8906C131.651 59.7135 131.047 59.4115 130.547 58.9844C130.057 58.5469 129.677 57.9583 129.406 57.2188C129.146 56.4688 129.016 55.5156 129.016 54.3594V47.2969H126.594L126.75 44.375ZM153.016 55.4375C153.016 56.1771 152.859 56.849 152.547 57.4531C152.245 58.0469 151.802 58.5573 151.219 58.9844C150.635 59.401 149.927 59.7292 149.094 59.9688C148.26 60.1979 147.323 60.3125 146.281 60.3125C145.74 60.3125 145.193 60.2812 144.641 60.2188C144.089 60.1667 143.552 60.0885 143.031 59.9844C142.521 59.8698 142.031 59.7344 141.562 59.5781C141.094 59.4219 140.672 59.25 140.297 59.0625L140.938 55.9688C141.365 56.1042 141.776 56.2344 142.172 56.3594C142.568 56.4844 142.964 56.5938 143.359 56.6875C143.755 56.7812 144.156 56.8542 144.562 56.9062C144.969 56.9583 145.396 56.9844 145.844 56.9844C146.635 56.9844 147.224 56.8385 147.609 56.5469C147.995 56.2552 148.188 55.8542 148.188 55.3438C148.188 55.1042 148.115 54.8958 147.969 54.7188C147.823 54.5312 147.62 54.3646 147.359 54.2188C147.099 54.0625 146.792 53.9271 146.438 53.8125C146.083 53.6979 145.698 53.5833 145.281 53.4688C144.594 53.2917 143.958 53.0729 143.375 52.8125C142.792 52.5417 142.286 52.2188 141.859 51.8438C141.432 51.4688 141.099 51.0312 140.859 50.5312C140.62 50.0312 140.5 49.4583 140.5 48.8125C140.5 48.0729 140.656 47.4115 140.969 46.8281C141.281 46.2344 141.729 45.7344 142.312 45.3281C142.896 44.9219 143.604 44.6094 144.438 44.3906C145.271 44.1719 146.214 44.0625 147.266 44.0625C148.38 44.0625 149.391 44.1719 150.297 44.3906C151.214 44.6094 151.969 44.8438 152.562 45.0938L151.844 48.25C151.448 48.125 151.078 48.0104 150.734 47.9062C150.391 47.8021 150.052 47.7135 149.719 47.6406C149.396 47.5573 149.068 47.4948 148.734 47.4531C148.411 47.4115 148.062 47.3906 147.688 47.3906C146.875 47.3906 146.276 47.5208 145.891 47.7812C145.516 48.0417 145.328 48.4062 145.328 48.875C145.328 49.1042 145.37 49.3073 145.453 49.4844C145.547 49.651 145.693 49.8073 145.891 49.9531C146.089 50.0885 146.344 50.2188 146.656 50.3438C146.969 50.4583 147.349 50.5729 147.797 50.6875C149.557 51.1562 150.865 51.7812 151.719 52.5625C152.583 53.3438 153.016 54.3021 153.016 55.4375ZM156.609 38.75H163.906C165.125 38.75 166.208 38.8854 167.156 39.1562C168.115 39.4271 168.927 39.8125 169.594 40.3125C170.26 40.8125 170.766 41.4115 171.109 42.1094C171.464 42.8073 171.641 43.5833 171.641 44.4375C171.641 45.0417 171.557 45.5885 171.391 46.0781C171.234 46.5677 171.031 47.0052 170.781 47.3906C170.542 47.7656 170.276 48.0938 169.984 48.375C169.693 48.6562 169.411 48.8906 169.141 49.0781C170.401 49.4323 171.38 50.026 172.078 50.8594C172.776 51.6823 173.125 52.7292 173.125 54C173.125 54.8958 172.938 55.7135 172.562 56.4531C172.188 57.1927 171.646 57.8281 170.938 58.3594C170.24 58.8802 169.391 59.2865 168.391 59.5781C167.391 59.8594 166.266 60 165.016 60H156.609V38.75ZM161.281 50.7969V56.4062H164.672C165.255 56.4062 165.786 56.3542 166.266 56.25C166.745 56.1354 167.151 55.9688 167.484 55.75C167.828 55.5312 168.094 55.25 168.281 54.9062C168.469 54.5625 168.562 54.1562 168.562 53.6875C168.562 52.7396 168.271 52.0208 167.688 51.5312C167.104 51.0417 166.245 50.7969 165.109 50.7969H161.281ZM161.281 42.3438V47.5781H166.125C166.333 47.2865 166.526 46.9115 166.703 46.4531C166.88 45.9948 166.969 45.4688 166.969 44.875C166.969 44.0417 166.682 43.4115 166.109 42.9844C165.547 42.5573 164.729 42.3438 163.656 42.3438H161.281ZM191.859 60H187.953L187.531 58.3125C186.802 58.9375 186.016 59.4271 185.172 59.7812C184.339 60.1354 183.432 60.3125 182.453 60.3125C181.609 60.3125 180.844 60.2188 180.156 60.0312C179.469 59.8438 178.88 59.5156 178.391 59.0469C177.911 58.5781 177.536 57.9427 177.266 57.1406C177.005 56.3385 176.875 55.3229 176.875 54.0938V44.375H181.578V54.0938C181.578 54.6146 181.62 55.0573 181.703 55.4219C181.786 55.776 181.917 56.0625 182.094 56.2812C182.271 56.5 182.495 56.6615 182.766 56.7656C183.036 56.8594 183.359 56.9062 183.734 56.9062C184.401 56.9062 185.021 56.7917 185.594 56.5625C186.167 56.3333 186.703 56.0312 187.203 55.6562V44.375H191.859V60ZM204.625 60.7812C204.312 61.8854 203.958 62.7969 203.562 63.5156C203.167 64.2448 202.734 64.8229 202.266 65.25C201.797 65.6875 201.292 65.9948 200.75 66.1719C200.219 66.349 199.656 66.4375 199.062 66.4375C198.594 66.4375 198.146 66.4115 197.719 66.3594C197.292 66.3073 196.896 66.2396 196.531 66.1562L196.844 62.9062C197.021 62.9062 197.146 62.9062 197.219 62.9062C197.292 62.9167 197.359 62.9219 197.422 62.9219C197.484 62.9323 197.568 62.9375 197.672 62.9375C197.776 62.9479 197.948 62.9531 198.188 62.9531C198.427 62.9531 198.646 62.9219 198.844 62.8594C199.042 62.7969 199.224 62.6823 199.391 62.5156C199.557 62.3594 199.708 62.1406 199.844 61.8594C199.99 61.5781 200.135 61.224 200.281 60.7969L194.531 44.375H199.281L202.453 55.375L205.766 44.375H210.516L204.625 60.7812Z" fill="#1A659E"/>
<path fill-rule="evenodd" clip-rule="evenodd" d="M50 50.8848C50 39.3504 41.0457 30 30 30C18.9543 30 10 39.3504 10 50.8848C10 58.7345 14.1472 65.5728 20.2785 69.1407C22.2167 69.818 24.3261 64.4565 20.7187 58.5267C20.746 58.4115 20.7655 58.3045 20.7838 58.2034C20.8293 57.9533 20.8682 57.7394 21.0034 57.5255V57.4253L21.0034 57.4253C21.0983 57.2251 21.1932 57.0248 21.383 56.8246C21.383 56.8246 23.7891 52.0506 26.1285 53.089C28.4679 54.1273 26.1285 69.2401 26.1285 69.2401C26.1285 69.8409 26.603 70.2414 27.0776 70.2414C27.647 70.2414 28.0267 69.7408 28.0267 69.2401V63.6331V58.0261C28.0267 56.7386 27.9027 55.3524 27.7767 53.9421C27.3929 49.6492 26.9891 45.1329 30 42.4984C34 38.9984 33 69.2414 33 69.2414C33 69.8421 33.5255 70.2414 34 70.2414C34.5695 70.2414 35 69.7408 35 69.2401V59.2424C35 58.8753 34.9975 58.4679 34.9948 58.0267C34.9593 52.2099 34.8878 40.4955 40 37.2414C42.7579 35.4859 41.7443 44.2302 40.7414 52.8817C39.7787 61.1876 38.8258 69.408 41.2298 68.1691C46.5231 64.4117 50 58.0722 50 50.8848Z" fill="#1A659E"/>
</svg>
