<svg version="1.2" xmlns="http://www.w3.org/2000/svg" viewBox="0 0 216 44" width="216" height="44"><style>.a{fill:#fff}</style><path class="a" d="m83.4 10.8l4.8-0.1-4.6 21.3h-5l-4.1-14.4-4.1 14.4h-5l-4.6-21.3h4.8l2.6 15.4 4.3-15.4h4l4.2 15.5zm7.8-0.7h4.7v7.7q1-0.8 2.2-1.3 1.2-0.4 2.5-0.4 1.3 0 2.3 0.3 1 0.2 1.8 0.9 0.7 0.7 1.1 1.9 0.4 1.2 0.4 2.9v9.9h-4.7v-9.9q0-1.4-0.5-2-0.5-0.6-1.6-0.6-1 0-1.9 0.3-0.8 0.4-1.6 0.9v11.3h-4.7zm28.2 12.5v-0.3q0-0.8-0.2-1.3-0.2-0.5-0.6-0.8-0.4-0.3-0.9-0.4-0.6-0.1-1.4-0.1-0.6 0-1.2 0-0.7 0.1-1.3 0.3-0.6 0.1-1.1 0.3-0.6 0.2-1 0.4l-0.8-3.3q0.6-0.2 1.3-0.5 0.7-0.2 1.5-0.4 0.8-0.2 1.6-0.3 0.8-0.1 1.5-0.1 1.6 0 2.9 0.2 1.4 0.3 2.3 1 1 0.7 1.5 1.9 0.5 1.2 0.5 3.1v9.7h-4.2l-0.3-1.6q-0.3 0.3-0.8 0.6-0.4 0.3-1.1 0.6-0.6 0.3-1.3 0.4-0.8 0.2-1.6 0.2-1.3 0-2.2-0.3-1-0.4-1.7-1-0.6-0.6-1-1.4-0.3-0.8-0.3-1.8 0-1 0.5-2 0.6-0.9 1.5-1.6 1-0.7 2.3-1.1 1.3-0.4 2.8-0.4zm-3.3 6.5q0.6 0 1.1-0.2 0.6-0.1 1-0.2 0.4-0.2 0.7-0.3 0.3-0.2 0.5-0.3v-2.9h-2.4q-0.9 0-1.4 0.3-0.5 0.2-0.8 0.6-0.3 0.3-0.4 0.7-0.1 0.3-0.1 0.6-0.1 0.8 0.5 1.2 0.5 0.5 1.3 0.5zm10.7-12.7h2.3v-4.1l4.7-0.3v4.4h4.4v2.9h-4.4v7.1q0 1.2 0.5 1.7 0.4 0.5 1.5 0.5 0.7 0 1.3-0.1 0.6-0.1 1.1-0.2l0.3 3.3q-0.3 0.1-0.7 0.2-0.5 0.1-1 0.2-0.4 0-0.9 0.1-0.5 0-1 0-1.4 0-2.4-0.2-1.1-0.3-1.9-0.9-0.7-0.7-1.1-1.8-0.4-1.1-0.4-2.8v-7.1h-2.4zm26.3 11.1q0 1.1-0.5 2-0.5 0.9-1.3 1.5-0.9 0.6-2.2 1-1.2 0.3-2.8 0.3-0.8 0-1.6-0.1-0.8 0-1.6-0.2-0.8-0.2-1.5-0.4-0.7-0.2-1.3-0.5l0.7-3.1q0.6 0.2 1.2 0.4 0.6 0.2 1.2 0.3 0.6 0.1 1.2 0.2 0.6 0.1 1.3 0.1 1.2 0 1.7-0.4 0.6-0.5 0.6-1.2 0-0.4-0.2-0.7-0.2-0.2-0.6-0.5-0.4-0.2-0.9-0.4-0.6-0.1-1.2-0.3-1-0.3-1.9-0.7-0.9-0.4-1.5-0.9-0.6-0.6-1-1.4-0.4-0.7-0.4-1.7 0-1.1 0.5-2 0.5-0.8 1.4-1.5 0.8-0.6 2.1-0.9 1.2-0.3 2.8-0.3 1.7 0 3 0.3 1.4 0.3 2.3 0.7l-0.7 3.2q-0.6-0.2-1.1-0.4-0.5-0.1-1-0.2-0.5-0.2-1-0.2-0.5-0.1-1.1-0.1-1.2 0-1.8 0.4-0.5 0.4-0.5 1.1 0 0.3 0.1 0.6 0.1 0.3 0.4 0.5 0.3 0.2 0.8 0.4 0.5 0.1 1.1 0.3 2.7 0.7 4 1.9 1.3 1.2 1.3 2.9zm3.5-16.7h7.3q1.9 0 3.3 0.4 1.4 0.4 2.4 1.1 1 0.8 1.5 1.8 0.6 1.1 0.6 2.4 0 0.9-0.3 1.6-0.2 0.7-0.6 1.3-0.3 0.6-0.8 1-0.4 0.4-0.8 0.7 1.9 0.5 2.9 1.8 1.1 1.2 1.1 3.1 0 1.4-0.6 2.5-0.6 1.1-1.6 1.9-1.1 0.8-2.6 1.2-1.5 0.4-3.3 0.4h-8.5zm4.7 12.1v5.6h3.4q0.9 0 1.6-0.2 0.7-0.2 1.2-0.5 0.5-0.3 0.8-0.8 0.3-0.5 0.3-1.2 0-1.5-0.9-2.2-0.8-0.7-2.6-0.7zm0-8.5v5.2h4.9q0.3-0.4 0.6-1.1 0.2-0.7 0.2-1.6 0-1.2-0.8-1.8-0.9-0.7-2.5-0.7zm30.6 17.7h-3.9l-0.4-1.7q-1.1 0.9-2.4 1.4-1.2 0.6-2.7 0.6-1.3 0-2.3-0.3-1-0.3-1.8-1-0.7-0.7-1.1-1.9-0.4-1.2-0.4-3v-9.8h4.7v9.8q0 0.7 0.1 1.3 0.2 0.5 0.4 0.8 0.3 0.4 0.7 0.5 0.4 0.2 1 0.2 1 0 1.8-0.4 0.9-0.3 1.6-0.9v-11.3h4.7zm12.8 0.8q-0.5 1.7-1.1 2.8-0.6 1.1-1.3 1.7-0.7 0.7-1.5 0.9-0.8 0.3-1.7 0.3-0.7 0-1.3-0.1-0.7-0.1-1.2-0.2l0.3-3.3q0.3 0 0.4 0 0.1 0.1 0.2 0.1 0.1 0 0.2 0 0.2 0 0.5 0 0.4 0 0.7-0.1 0.3-0.1 0.5-0.3 0.3-0.3 0.5-0.7 0.2-0.4 0.4-1.1l-5.7-16.4h4.7l3.2 11 3.3-11h4.8z"/><path fill-rule="evenodd" class="a" d="m50 22.9c0-11.5-9-20.9-20-20.9-11 0-20 9.4-20 20.9 0 7.8 4.1 14.7 10.3 18.2 1.9 0.7 4-4.6 0.4-10.6q0.1-0.1 0.1-0.3c0-0.2 0.1-0.5 0.2-0.7v-0.1c0.1-0.2 0.2-0.4 0.4-0.6 0 0 2.4-4.7 4.7-3.7 2.4 1 0 16.1 0 16.1 0 0.6 0.5 1 1 1 0.5 0 0.9-0.5 0.9-1v-5.6-5.6c0-1.3-0.1-2.6-0.2-4.1-0.4-4.3-0.8-8.8 2.2-11.4 4-3.5 3 26.7 3 26.7 0 0.6 0.5 1 1 1 0.6 0 1-0.5 1-1v-10q0-0.5 0-1.2c0-5.8-0.1-17.5 5-20.8 2.8-1.7 1.7 7 0.7 15.7-0.9 8.3-1.9 16.5 0.5 15.3 5.3-3.8 8.8-10.1 8.8-17.3z"/></svg>